<svg width="456" height="77" viewBox="0 0 456 77" fill="none" xmlns="http://www.w3.org/2000/svg">
<g clip-path="url(#clip0)">
<path d="M206 6.6C204.3 3.8 201.2 2 197.9 2C194.6 2 191.5 3.7 189.8 6.5L164.4 47.7L139.2 6.6C137.5 3.8 134.4 2.1 131.1 2.1C127.8 2.1 124.7 3.8 123 6.6L92.7 56.3L91.6 58C91.6 58 91.6 58 91.6 58.1L90.1 60.5C90 60.6 90 60.7 89.9 60.8C87.1 65.4 88.4 71.4 92.8 74.2C95.5 75.9 98.8 75.9 101.6 74.7H101.7C101.8 74.7 101.8 74.6 101.9 74.6C103.5 73.8 105 72.6 106 71L131.1 29.9L156.3 71C158 73.8 161.1 75.5 164.4 75.5C167.7 75.5 170.7 73.8 172.5 71L197.8 29.9L222.6 70.9C225.3 75.4 231.1 76.8 235.6 74.1C240.1 71.4 241.5 65.6 238.8 61.1L206 6.6Z" fill="#FFFFFF"/>
<path d="M316.5 0H217.2C215.6 0 214.7 1.7 215.5 3L224.8 18C225.2 18.6 225.8 18.9 226.5 18.9H263.4V65.8C263.4 71 267.6 75.3 272.9 75.3C278.2 75.3 282.4 71.1 282.4 65.8V18.9H316.5C322.1 18.9 326.6 14.7 326.6 9.4C326.7 4.2 322.1 0 316.5 0Z" fill="#FFFFFF"/>
<path d="M364.4 1.80001C364.3 1.60001 364.2 1.40001 364.1 1.30001C364 1.20001 363.8 1.20001 363.7 1.20001H339.7C339.5 1.20001 339.4 1.20001 339.3 1.30001C339.2 1.40001 339.1 1.60001 339 1.80001C338.9 2.00001 338.8 2.30001 338.8 2.70001C338.8 3.10001 338.7 3.50001 338.7 4.00001C338.7 4.50001 338.7 4.90001 338.8 5.30001C338.8 5.70001 338.9 6.00001 339 6.20001C339.1 6.40001 339.2 6.60001 339.3 6.70001C339.4 6.80001 339.6 6.90001 339.7 6.90001H348.2V34.4C348.2 34.6 348.3 34.7 348.4 34.9C348.5 35 348.7 35.2 349 35.2C349.3 35.3 349.6 35.4 350.1 35.4C350.5 35.5 351.1 35.5 351.8 35.5C352.5 35.5 353 35.5 353.5 35.4C353.9 35.3 354.3 35.3 354.6 35.2C354.9 35.1 355.1 35 355.2 34.9C355.3 34.8 355.4 34.6 355.4 34.4V6.90001H363.9C364.1 6.90001 364.2 6.80001 364.3 6.70001C364.4 6.60001 364.5 6.40001 364.6 6.20001C364.7 6.00001 364.8 5.70001 364.8 5.30001C364.8 4.90001 364.9 4.50001 364.9 4.00001C364.9 3.50001 364.9 3.00001 364.8 2.70001C364.7 2.40001 364.5 2.00001 364.4 1.80001Z" fill="#FFFFFF"/>
<path d="M390.6 30.5C390.5 30.3 390.4 30.1 390.3 30C390.2 29.9 390 29.9 389.9 29.9H377.6V20.3H387.9C388.1 20.3 388.2 20.3 388.3 20.2C388.4 20.1 388.5 20 388.6 19.8C388.7 19.6 388.8 19.3 388.8 19C388.8 18.7 388.9 18.2 388.9 17.7C388.9 17.2 388.9 16.8 388.8 16.4C388.8 16.1 388.7 15.8 388.6 15.6C388.5 15.4 388.4 15.2 388.3 15.2C388.2 15.1 388 15.1 387.9 15.1H377.6V6.60001H389.8C390 6.60001 390.1 6.60001 390.2 6.50001C390.3 6.40001 390.4 6.20001 390.5 6.00001C390.6 5.80001 390.7 5.50001 390.7 5.20001C390.7 4.90001 390.8 4.40001 390.8 3.90001C390.8 3.40001 390.8 2.90001 390.7 2.60001C390.7 2.30001 390.6 2.00001 390.5 1.80001C390.4 1.60001 390.3 1.40001 390.2 1.30001C390.1 1.20001 389.9 1.20001 389.8 1.20001H372.8C372.2 1.20001 371.7 1.40001 371.3 1.70001C370.9 2.00001 370.7 2.60001 370.7 3.40001V33.1C370.7 33.9 370.9 34.4 371.3 34.8C371.7 35.1 372.2 35.3 372.8 35.3H389.9C390.1 35.3 390.2 35.3 390.3 35.2C390.4 35.1 390.5 34.9 390.6 34.7C390.7 34.5 390.8 34.2 390.8 33.9C390.8 33.6 390.9 33.1 390.9 32.6C390.9 32.1 390.9 31.7 390.8 31.3C390.7 30.9 390.7 30.7 390.6 30.5Z" fill="#FFFFFF"/>
<path d="M421.6 27.8C421.5 27.6 421.4 27.4 421.3 27.4C421.2 27.3 421.1 27.3 420.9 27.3C420.7 27.3 420.4 27.4 419.9 27.7C419.5 28 419 28.3 418.3 28.6C417.7 29 416.9 29.3 416 29.6C415.1 29.9 414 30 412.8 30C411.4 30 410.2 29.8 409.1 29.3C408 28.8 407.1 28.1 406.3 27.2C405.5 26.3 404.9 25 404.5 23.6C404.1 22.1 403.9 20.4 403.9 18.4C403.9 16.6 404.1 14.9 404.5 13.5C404.9 12 405.5 10.8 406.2 9.79999C406.9 8.79999 407.9 7.99999 408.9 7.39999C410 6.79999 411.2 6.59999 412.5 6.59999C413.7 6.59999 414.8 6.79999 415.7 7.09999C416.6 7.39999 417.4 7.79999 418 8.09999C418.6 8.49999 419.2 8.79999 419.6 9.09999C420 9.39999 420.3 9.59999 420.6 9.59999C420.8 9.59999 420.9 9.49999 421 9.39999C421.1 9.29999 421.2 9.09999 421.3 8.89999C421.4 8.69999 421.4 8.39999 421.5 7.99999C421.6 7.59999 421.6 7.19999 421.6 6.69999C421.6 6.19999 421.6 5.79999 421.6 5.49999C421.6 5.19999 421.5 4.89999 421.5 4.59999C421.4 4.39999 421.4 4.19999 421.3 3.99999C421.2 3.79999 421 3.59999 420.8 3.39999C420.6 3.19999 420.1 2.89999 419.5 2.49999C418.9 2.19999 418.2 1.89999 417.5 1.59999C416.8 1.29999 415.9 1.09999 415.1 0.999988C414.3 0.899988 413.3 0.799988 412.4 0.799988C410.1 0.799988 407.9 1.19999 406 1.99999C404.1 2.79999 402.4 3.99999 401 5.49999C399.6 6.99999 398.5 8.89999 397.8 11.2C397 13.5 396.6 16 396.6 18.9C396.6 21.7 397 24.2 397.7 26.4C398.4 28.5 399.4 30.3 400.7 31.8C402 33.2 403.6 34.3 405.5 35C407.4 35.7 409.5 36.1 411.8 36.1C413 36.1 414.1 36 415.1 35.8C416.1 35.6 417 35.4 417.8 35.1C418.6 34.8 419.3 34.5 419.8 34.2C420.4 33.9 420.7 33.6 420.9 33.4C421.1 33.2 421.2 33 421.3 32.9C421.4 32.8 421.5 32.6 421.5 32.3C421.6 32.1 421.6 31.8 421.6 31.5C421.6 31.2 421.6 30.8 421.6 30.4C421.6 29.8 421.6 29.3 421.5 28.9C421.7 28.3 421.7 28 421.6 27.8Z" fill="#FFFFFF"/>
<path d="M455.3 1.7C455.2 1.6 455 1.4 454.7 1.4C454.4 1.3 454.1 1.2 453.6 1.2C453.1 1.2 452.7 1 452 1C451.3 1 450.7 1 450.3 1.1C449.9 1.2 449.5 1.2 449.2 1.3C448.9 1.4 448.8 1.5 448.6 1.6C448.5 1.7 448.4 1.9 448.4 2.1V14.6H435.6V2.2C435.6 2 435.5 1.9 435.4 1.7C435.3 1.6 435.1 1.4 434.8 1.4C434.5 1.3 434.2 1.2 433.7 1.2C433.2 1.2 433 1 432.3 1C431.6 1 431.1 1 430.6 1.1C430.2 1.2 429.8 1.2 429.5 1.3C429.2 1.4 429 1.5 428.9 1.6C428.8 1.7 428.7 1.9 428.7 2.1V34.3C428.7 34.5 428.8 34.6 428.9 34.8C429 34.9 429.2 35.1 429.5 35.1C429.8 35.2 430.1 35.3 430.6 35.3C431 35.4 431.6 35.4 432.3 35.4C433 35.4 433.5 35.4 434 35.3C434.5 35.2 434.8 35.2 435.1 35.1C435.4 35 435.5 34.9 435.7 34.8C435.8 34.7 435.9 34.5 435.9 34.3V20.6H448.7V34.4C448.7 34.6 448.8 34.7 448.9 34.9C449 35 449.2 35.2 449.5 35.2C449.8 35.3 450.1 35.4 450.6 35.4C451 35.5 451.6 35.5 452.3 35.5C453 35.5 453.5 35.5 454 35.4C454.5 35.3 454.8 35.3 455.1 35.2C455.4 35.1 455.6 35 455.7 34.9C455.8 34.8 455.9 34.6 455.9 34.4V2.2C455.4 2 455.4 1.8 455.3 1.7Z" fill="#FFFFFF"/>
<path d="M61.6 29.5H54.2H54.1H21.5C19.8 29.5 18 27.2 18 24.2C18 21.2 19.8 18.9 21.5 18.9H74.1C79.1 18.9 83.1 14.9 83.1 9.89999C83.1 4.89999 79.1 0.899994 74.1 0.899994H21.5C9.6 0.999994 0 11.4 0 24.2C0 37 9.6 47.5 21.5 47.5H28.8C28.9 47.5 28.9 47.5 29 47.5H61.6C63.3 47.5 65.1 49.8 65.1 52.8C65.1 55.8 63.3 58.1 61.6 58.1H9C4 58.1 0 62.1 0 67.1C0 72.1 4 76.1 9 76.1H61.6C73.5 76.1 83.1 65.7 83.1 52.8C83.1 39.9 73.5 29.5 61.6 29.5Z" fill="#FFFFFF"/>
</g>
<defs>
<clipPath id="clip0">
<rect width="455.4" height="76.1" fill="white"/>
</clipPath>
</defs>
</svg>
